name C:\Users\u0101727\Documents\MyRepositories\upper-imu-dc\Results\main_tracking\Case_27\kinematics.mot
datacolumns 10
datarows 28
range 0.90000000 1.17000000
endheader 
time	clav_prot	clav_elev	scapula_abduction	scapula_elevation	scapula_upward_rot	scapula_winging	plane_elv	shoulder_elv	axial_rot	
          0.90000000	        -24.19500968	          9.34625112	        -13.21769734	          3.35217455	         24.06682121	          0.18856185	        -30.25253504	          9.96608571	         53.56894705	
          0.91000000	        -24.15732161	          8.87104288	        -12.86933381	          2.98881669	         24.13248303	          0.16407716	        -30.63322835	         10.27469585	         53.29935423	
          0.92000000	        -24.04413967	          8.43137029	        -12.42266481	          2.66115161	         24.17152784	          0.15741623	        -30.86696015	         10.57625004	         53.18257019	
          0.93000000	        -23.87150381	          8.03147475	        -11.94390090	          2.38295200	         24.14260359	          0.18041697	        -30.91418553	         10.88096227	         53.26628742	
          0.94000000	        -23.69973528	          7.66878096	        -11.45230470	          2.12053534	         24.16341422	          0.19007387	        -30.92577125	         11.13582442	         53.36534587	
          0.95000000	        -23.50944104	          7.34252477	        -10.90817938	          1.87346317	         24.23917696	          0.18497471	        -30.95172153	         11.34335501	         53.42783935	
          0.96000000	        -23.27798560	          7.05853852	        -10.29856602	          1.65582196	         24.33423594	          0.17548459	        -30.96413198	         11.51745043	         53.50230807	
          0.97000000	        -23.00309462	          6.82229300	         -9.61665399	          1.47047436	         24.45397815	          0.15770577	        -30.97526303	         11.64676848	         53.58374095	
          0.98000000	        -22.67182048	          6.64385017	         -8.87353490	          1.33547594	         24.55514123	          0.14209950	        -30.94569439	         11.73969726	         53.73919078	
          0.99000000	        -22.09379760	          6.52059174	         -7.74409505	          1.26592870	         24.61109425	          0.13297971	        -30.81584081	         11.78997595	         54.06830716	
          1.00000000	        -22.35665319	          6.52978622	         -8.23895288	          1.26330948	         24.58446593	          0.14138894	        -30.53322162	         11.81962786	         54.68552543	
          1.01000000	        -22.60751387	          6.58518167	         -8.74981883	          1.30122208	         24.53227617	          0.15275785	        -30.16935687	         11.81859381	         55.47175824	
          1.02000000	        -22.75464751	          6.66388109	         -9.06690345	          1.35684536	         24.50471068	          0.15511324	        -29.81375113	         11.79184965	         56.24223405	
          1.03000000	        -21.58885877	          6.65267114	         -6.94627032	          1.41021426	         24.53528278	          0.14124047	        -29.52199682	         11.74346100	         56.89831230	
          1.04000000	        -22.81791360	          6.82664313	         -9.14847525	          1.44103391	         24.64545240	          0.10359373	        -29.30650142	         11.67365534	         57.41151986	
          1.05000000	        -22.87649527	          6.89528568	         -9.14466549	          1.44457375	         24.83607260	          0.04178725	        -29.15422295	         11.59010931	         57.73645545	
          1.06000000	        -22.89116146	          6.94025818	         -8.98871779	          1.41387920	         25.11292356	         -0.04383663	        -29.06964669	         11.48763741	         57.87995313	
          1.07000000	        -22.85840514	          6.95533253	         -8.67377950	          1.34584850	         25.47222412	         -0.15133887	        -29.04658411	         11.35994064	         57.87294608	
          1.08000000	        -22.76661635	          6.94296872	         -8.19428357	          1.24802303	         25.89383006	         -0.27423966	        -29.06579784	         11.20219271	         57.77474110	
          1.09000000	        -22.59705905	          6.92591669	         -7.56276071	          1.14972234	         26.32769831	         -0.39886789	        -29.07305646	         11.01518360	         57.69448689	
          1.10000000	        -22.01133553	          6.92570475	         -6.24830923	          1.10688939	         26.68050387	         -0.50189498	        -28.96334495	         10.81724720	         57.80827294	
          1.11000000	        -21.97998066	          7.04557306	         -6.11026749	          1.15822084	         26.85763759	         -0.56035600	        -28.63717792	         10.65430869	         58.27913946	
          1.12000000	        -21.64536958	          7.19961688	         -5.52728572	          1.27785120	         26.91645211	         -0.59027160	        -28.22020726	         10.52084463	         58.95398332	
          1.13000000	        -21.41840964	          7.37702410	         -5.15726413	          1.41110163	         26.96222596	         -0.61673513	        -27.81752274	         10.37704428	         59.66420935	
          1.14000000	        -21.29625346	          7.54792649	         -4.93983299	          1.52366097	         27.05354548	         -0.65346670	        -27.48344136	         10.20548294	         60.32000185	
          1.15000000	        -21.27956313	          7.70231069	         -4.85589197	          1.60348629	         27.21244202	         -0.70585980	        -27.23372968	         10.00418390	         60.88115045	
          1.16000000	        -21.35494413	          7.84098920	         -4.88158977	          1.65212240	         27.43866027	         -0.77451957	        -27.06637668	          9.78152782	         61.33077720	
          1.17000000	        -21.50275697	          7.97003875	         -4.99339918	          1.67812426	         27.71903012	         -0.85706617	        -26.97011694	          9.55232436	         61.66329613	
